# xmcd
#
# Track frame offsets:
#	150
#	14940
#	27457
#	43605
#	58320
#	73110
#	92122
#	110835
#	128120
#	144730
#	159220
#	172282
#	189025
#	214665
#
# Disc length: 3036 seconds
#
# Revision: 0
# Processed by: cddbd v1.5.2PL0 Copyright (c) Steve Scherf et al.
# Submitted via: EasyCDDAExtractor 16.0.8.2
#
DISCID=d60bda0e
DTITLE=Γαλάνη Δήμητρα - Αφιέρωμα στον Ν. Γκάτσο-Σ. Ξαρχάκος 1
DYEAR=2003
DGENRE=Ποικίλη
TTITLE0=Χάρτινο το φεγγαράκι [Μάνος Χατζιδάκις]
TTITLE1=Ένας ευαίσθητος ληστής [Μ. Χατζιδάκις]
TTITLE2=Η πίκρα σήμερα [Μάνος Χατζιδάκις]
TTITLE3=Μίλησέ μου [Μάνος Χατζιδάκις]
TTITLE4=Νυν και αεί [Σταύρος Ξαρχάκος]
TTITLE5=Η νύχτα [Σταύρος Ξαρχάκος]
TTITLE6=Ο ξένος [Σταύρος Ξαρχάκος]
TTITLE7=Παλληκάρι στα Σφακιά [Σταύρος Ξαρχάκος]
TTITLE8=Τ' αστέρι του βοριά [Μάνος Χατζιδάκις]
TTITLE9=Με την Ελλάδα καραβοκύρη [Μ. Χατζιδάκις]
TTITLE10=Ήταν του Μάη το πρόσωπο [Μ. Χατζιδάκις]
TTITLE11=Άσπρο περιστέρι [Μάνος Χατζιδάκις]
TTITLE12=Δάκρυα του φθινοπώρου [Σ. Ξαρχάκος]
TTITLE13=Αύριο πάλι [Δήμος Μούτσης]
EXTD=
EXTT0=
EXTT1=
EXTT2=
EXTT3=
EXTT4=
EXTT5=
EXTT6=
EXTT7=
EXTT8=
EXTT9=
EXTT10=
EXTT11=
EXTT12=
EXTT13=
PLAYORDER=
